<svg width="13" height="10" viewBox="0 0 13 10" fill="none" xmlns="http://www.w3.org/2000/svg">
<g opacity="0.44">
<path opacity="0.44" d="M10.4163 8.1332e-06L0.923233 2.9666L2.92272 9.36496L12.4158 6.39837L10.4163 8.1332e-06Z" fill="#FE904D"/>
<path opacity="0.44" d="M11.4209 6.9764L1.9748 9.90203L0 3.53329L9.44614 0.60766L11.4209 6.9764ZM1.9748 9.90203L11.4136 6.9764L9.4498 0.613146L0.012801 3.53878L1.9748 9.90203Z" fill="#1A2E35"/>
<path opacity="0.44" d="M9.49734 0.675314C9.47921 0.713879 9.45843 0.751146 9.43517 0.786852L9.25232 1.09953L8.53371 2.2387L6.11824 5.99448L6.09995 6.02374L6.06521 6.01094L5.98292 5.97803L1.77732 4.32138L0.508326 3.8094L0.164563 3.66495C0.12353 3.65134 0.084257 3.63292 0.0475464 3.61009C0.0900714 3.61909 0.131688 3.63195 0.171884 3.64849L0.521127 3.77649L1.80109 4.26104L6.00669 5.89574L6.08898 5.92683L6.03412 5.94511L8.46239 2.20944C8.77324 1.74134 9.02375 1.35918 9.20477 1.08673L9.4114 0.783196C9.43539 0.743763 9.46427 0.707516 9.49734 0.675314V0.675314Z" fill="#1A2E35"/>
<path opacity="0.44" d="M2.02782 9.96969C2.00405 9.96055 2.44291 8.87258 3.00792 7.52862C3.57293 6.18465 4.05017 5.11314 4.07394 5.12411C4.09771 5.13508 3.65704 6.22122 3.09202 7.56519C2.52701 8.90915 2.04977 9.98067 2.02782 9.96969Z" fill="#1A2E35"/>
<path opacity="0.44" d="M7.18793 4.07088C7.20255 4.05077 8.17167 4.69806 9.35472 5.51907C10.5378 6.34007 11.4849 7.02028 11.4703 7.0404C11.4557 7.06051 10.4866 6.41322 9.30353 5.59221C8.12047 4.7712 7.1733 4.09099 7.18793 4.07088Z" fill="#1A2E35"/>
</g>
</svg>
