<svg width="71" height="49" viewBox="0 0 71 49" fill="none" xmlns="http://www.w3.org/2000/svg">
<path opacity="0.18" d="M53.9439 27.2895C53.9141 27.142 53.8379 27.008 53.7263 26.907C53.6148 26.806 53.4739 26.7434 53.3242 26.7283C53.1744 26.7132 53.0238 26.7465 52.8944 26.8232C52.765 26.9 52.6636 27.0162 52.605 27.1547C52.5331 27.3438 52.5331 27.5526 52.605 27.7416C52.6356 27.8268 52.678 27.9073 52.731 27.9807V28.0242C52.7591 28.0911 52.8046 28.1494 52.8626 28.1929C52.9207 28.2365 52.9893 28.2637 53.0614 28.272C53.1549 28.2814 53.2493 28.2664 53.3353 28.2285L53.3875 28.1981L53.2918 28.2285C53.351 28.2189 53.4083 28.1998 53.4614 28.172C53.5827 28.0986 53.6901 28.0044 53.7787 27.8938C53.8483 27.811 53.8991 27.7141 53.9277 27.6098C53.9562 27.5054 53.9617 27.3962 53.9439 27.2895Z" fill="#FE904D"/>
<path opacity="0.18" d="M54.483 30.6065C54.4181 30.5239 54.3367 30.4557 54.2439 30.4065H54.2178C54.2178 30.4065 54.2178 30.4065 54.1917 30.4065H54.1439C54.1237 30.4045 54.1033 30.4045 54.083 30.4065C54.0599 30.4041 54.0366 30.4041 54.0135 30.4065H53.8352H53.8048H53.7787C53.6779 30.4355 53.5845 30.4859 53.5049 30.5543V30.5543C53.4084 30.6323 53.3345 30.7348 53.2909 30.8509C53.2474 30.9671 53.2357 31.0929 53.2571 31.2151C53.2796 31.3338 53.3311 31.445 53.4069 31.5391C53.4828 31.6331 53.5806 31.707 53.6918 31.7542C53.8104 31.8015 53.9398 31.815 54.0657 31.7933C54.1833 31.7694 54.2933 31.7173 54.3864 31.6416C54.4795 31.5659 54.5529 31.4688 54.6004 31.3586C54.6549 31.2351 54.6728 31.0986 54.652 30.9653C54.6312 30.832 54.5726 30.7074 54.483 30.6065V30.6065Z" fill="#FE904D"/>
<path opacity="0.18" d="M55.5698 24.8811C55.1829 24.5811 57.7435 19.7383 59.3737 19.9035C61.0039 20.0687 56.0219 25.2332 55.5698 24.8811Z" fill="#FE904D"/>
<path opacity="0.18" d="M56.6479 27.4286C56.1263 27.0504 59.5954 22.8944 61.3604 24.0942C62.0603 24.5681 60.3518 25.2289 59.3824 25.7592C58.7303 26.1157 56.874 27.5938 56.6479 27.4286Z" fill="#FE904D"/>
<path opacity="0.18" d="M54.4482 39.8401C54.4703 39.6677 54.4402 39.4927 54.3618 39.3376C54.2834 39.1825 54.1604 39.0544 54.0085 38.9699C53.8566 38.8854 53.683 38.8484 53.5098 38.8636C53.3367 38.8788 53.1721 38.9455 53.0373 39.0551C52.9024 39.1647 52.8036 39.3123 52.7534 39.4786C52.7032 39.645 52.704 39.8226 52.7558 39.9885C52.8075 40.1544 52.9077 40.301 53.0436 40.4094C53.1794 40.5178 53.3446 40.5829 53.5179 40.5965C53.7404 40.6139 53.9611 40.5451 54.1343 40.4043C54.3075 40.2635 54.4199 40.0615 54.4482 39.8401Z" fill="#FE904D"/>
<path opacity="0.18" d="M54.8003 34.9972C54.8257 34.7466 54.7762 34.494 54.658 34.2715C54.5399 34.049 54.3584 33.8666 54.1365 33.7472C53.9147 33.6279 53.6624 33.577 53.4116 33.601C53.1608 33.625 52.9228 33.7228 52.7276 33.8821C52.5325 34.0414 52.3889 34.255 52.3151 34.4959C52.2414 34.7368 52.2407 34.9942 52.3132 35.2354C52.3857 35.4767 52.5281 35.6911 52.7224 35.8514C52.9167 36.0118 53.1542 36.1109 53.4049 36.1362C53.5714 36.1536 53.7397 36.138 53.9001 36.0901C54.0605 36.0422 54.2099 35.963 54.3396 35.8571C54.4693 35.7513 54.5768 35.6208 54.6559 35.4732C54.7349 35.3256 54.784 35.1639 54.8003 34.9972V34.9972Z" fill="#FE904D"/>
<path opacity="0.18" d="M56.0654 25.7506C55.3742 25.7766 55.5176 22.5423 56.7479 20.6599C57.5304 19.46 59.2911 17.8733 60.1301 19.3992C60.7822 20.586 59.1868 20.8903 57.7913 23.1857C57.0001 24.4812 56.9218 25.7158 56.0654 25.7506Z" fill="#FE904D"/>
<path opacity="0.18" d="M46.2579 12.2044C45.6145 12.487 44.5712 21.7033 45.4928 21.7989C45.9971 21.8511 47.8621 19.5209 48.0273 19.5166C48.1925 19.5122 49.6662 22.5336 50.1009 22.4771C50.8834 22.3814 52.7441 12.9913 51.9964 12.7522C51.2486 12.5131 47.2578 11.7567 46.2579 12.2044Z" fill="#FE904D"/>
<path opacity="0.18" d="M42.1671 17.4386C42.0277 17.4238 41.8871 17.4508 41.763 17.516C41.6389 17.5812 41.537 17.6818 41.47 17.805C41.4031 17.9282 41.3743 18.0685 41.3871 18.2081C41.3999 18.3477 41.4539 18.4803 41.5421 18.5893C41.6303 18.6982 41.7489 18.7785 41.8828 18.82C42.0167 18.8616 42.1599 18.8624 42.2943 18.8226C42.4287 18.7827 42.5483 18.7038 42.6378 18.596C42.7274 18.4881 42.783 18.3561 42.7975 18.2167C42.8158 18.0302 42.7599 17.844 42.642 17.6983C42.524 17.5527 42.3534 17.4594 42.1671 17.4386V17.4386Z" fill="#FE904D"/>
<path opacity="0.18" d="M42.9279 12.4522H42.8975C42.7131 12.4362 42.5297 12.4926 42.386 12.6095C42.2424 12.7263 42.1499 12.8944 42.128 13.0782C42.1164 13.1858 42.1299 13.2945 42.1674 13.396C42.2049 13.4975 42.2654 13.5888 42.3442 13.663C42.423 13.7371 42.5179 13.792 42.6214 13.8233C42.7249 13.8546 42.8343 13.8614 42.941 13.8433H42.9714C43.0911 13.8232 43.2034 13.7722 43.2974 13.6955C43.3688 13.6382 43.4279 13.5671 43.4712 13.4864C43.5146 13.4058 43.5412 13.3172 43.5496 13.226C43.5691 13.0411 43.5147 12.856 43.3983 12.711C43.2818 12.566 43.1127 12.473 42.9279 12.4522V12.4522Z" fill="#FE904D"/>
<path opacity="0.18" d="M61.6038 16.5604C61.5108 16.5545 61.419 16.5848 61.3478 16.645C61.2766 16.7053 61.2315 16.7907 61.222 16.8835C61.2124 16.9763 61.2392 17.0691 61.2966 17.1426C61.354 17.2161 61.4376 17.2645 61.5299 17.2777C61.623 17.2836 61.7148 17.2533 61.7859 17.193C61.8571 17.1328 61.9022 17.0473 61.9118 16.9546C61.9214 16.8618 61.8946 16.7689 61.8372 16.6955C61.7798 16.622 61.6962 16.5736 61.6038 16.5604V16.5604Z" fill="#FE904D"/>
<path opacity="0.18" d="M61.643 16.217C61.46 16.2045 61.2793 16.2636 61.1389 16.3816C60.9985 16.4997 60.9094 16.6676 60.8903 16.85C60.8711 17.0324 60.9234 17.2151 61.0363 17.3598C61.1491 17.5044 61.3136 17.5996 61.4952 17.6255C61.6781 17.6379 61.8588 17.5789 61.9992 17.4608C62.1396 17.3428 62.2287 17.1749 62.2478 16.9924C62.267 16.81 62.2147 16.6273 62.1018 16.4827C61.989 16.3381 61.8245 16.2428 61.643 16.217V16.217Z" fill="#FE904D"/>
<path opacity="0.18" d="M38.4589 6.63992C38.3589 5.67048 38.3981 4.49236 37.9938 3.59682C37.9235 3.44857 37.8068 3.32719 37.6615 3.251C37.5162 3.17481 37.3501 3.14794 37.1881 3.17443C37.0262 3.20093 36.8773 3.27936 36.7638 3.3979C36.6504 3.51643 36.5785 3.66864 36.5592 3.83158C36.4809 4.85319 36.9461 6.04434 37.3156 6.9877C37.5199 7.51372 37.859 8.62663 38.5372 8.72661C38.5497 8.72851 38.5626 8.72611 38.5736 8.7198C38.5847 8.71349 38.5933 8.70364 38.598 8.69184C38.8415 8.11365 38.5198 7.22246 38.4589 6.63992Z" fill="#FE904D"/>
<path opacity="0.18" d="M41.2151 3.74897C41.2133 3.55635 41.1405 3.37117 41.0106 3.22888C40.8808 3.08659 40.703 2.9972 40.5113 2.97782C40.3197 2.95844 40.1276 3.01043 39.9719 3.12384C39.8162 3.23725 39.7078 3.40411 39.6675 3.59247C39.3501 4.94013 38.9284 7.45286 39.9109 8.61793C39.9372 8.64845 39.9709 8.6717 40.0087 8.68545C40.0465 8.6992 40.0873 8.70298 40.127 8.69643C40.1668 8.68988 40.2041 8.67322 40.2356 8.64805C40.267 8.62289 40.2914 8.59006 40.3065 8.55272C40.5066 7.76172 40.6648 6.9607 40.7804 6.15302C40.9238 5.39659 41.2325 4.52714 41.2151 3.74897Z" fill="#FE904D"/>
<path opacity="0.18" d="M43.0453 4.24021C42.5454 4.77928 42.3323 5.64873 42.0628 6.32256C41.7933 6.99639 41.4064 7.6963 41.4759 8.38752C41.4833 8.43007 41.5004 8.47036 41.5258 8.50529C41.5512 8.54022 41.5843 8.56886 41.6225 8.58901C41.6607 8.60916 41.703 8.62028 41.7462 8.62153C41.7894 8.62277 41.8322 8.6141 41.8715 8.59619C42.4367 8.35274 42.7671 7.54415 43.0236 7.03551C43.4236 6.38091 43.7724 5.69634 44.0669 4.98794C44.2365 4.43149 43.5409 3.72289 43.0453 4.24021Z" fill="#FE904D"/>
<path opacity="0.18" d="M17.8441 23.9073C17.6684 23.8903 17.4932 23.9433 17.3564 24.0548C17.2196 24.1664 17.1324 24.3274 17.1138 24.5029C17.1007 24.6337 17.1267 24.7654 17.1885 24.8814C17.2502 24.9975 17.345 25.0926 17.4608 25.1548C17.5766 25.217 17.7082 25.2435 17.839 25.231C17.9699 25.2185 18.0941 25.1674 18.196 25.0844C18.2978 25.0013 18.3728 24.8899 18.4114 24.7643C18.45 24.6386 18.4505 24.5043 18.4129 24.3784C18.3752 24.2525 18.3011 24.1405 18.1999 24.0567C18.0987 23.9728 17.9748 23.9208 17.8441 23.9073Z" fill="#FE904D"/>
<path opacity="0.18" d="M14.3967 7.23549C14.3402 7.67022 13.0925 3.32294 14.0359 1.22755C14.9793 -0.867843 16.7399 -0.141847 16.1182 2.35349C15.4966 4.84883 14.6706 5.13141 14.3967 7.23549Z" fill="#FE904D"/>
<path opacity="0.18" d="M9.20606 8.47446C9.2191 8.34366 9.19311 8.21193 9.13134 8.0959C9.06958 7.97987 8.97482 7.88474 8.85903 7.82253C8.74324 7.76031 8.61161 7.7338 8.48077 7.74633C8.34992 7.75887 8.22572 7.8099 8.12386 7.89297C8.02199 7.97604 7.94702 8.08743 7.90841 8.21308C7.8698 8.33873 7.86929 8.473 7.90694 8.59893C7.94458 8.72487 8.0187 8.83683 8.11993 8.92068C8.22116 9.00453 8.34497 9.0565 8.47571 9.07003C8.5628 9.07905 8.65082 9.07078 8.73471 9.04571C8.81859 9.02063 8.89671 8.97924 8.96456 8.9239C9.03241 8.86857 9.08868 8.80038 9.13012 8.72326C9.17156 8.64613 9.19737 8.56158 9.20606 8.47446V8.47446Z" fill="#FE904D"/>
<path opacity="0.18" d="M9.47559 4.65755C9.50014 4.41891 9.45336 4.17835 9.34118 3.96629C9.22899 3.75424 9.05645 3.58021 8.84535 3.46622C8.63426 3.35224 8.3941 3.30341 8.15526 3.32592C7.91642 3.34843 7.68961 3.44127 7.50353 3.59269C7.31745 3.7441 7.18046 3.9473 7.10987 4.17659C7.03928 4.40587 7.03827 4.65093 7.10697 4.88079C7.17567 5.11065 7.31099 5.31497 7.49582 5.46791C7.68064 5.62085 7.90668 5.71555 8.14533 5.74003C8.46527 5.77284 8.78514 5.67724 9.0346 5.47424C9.28406 5.27125 9.44269 4.97748 9.47559 4.65755V4.65755Z" fill="#FE904D"/>
<path opacity="0.18" d="M7.17587 22.3901C7.05414 22.2419 6.87954 22.1468 6.68898 22.1249C6.56444 22.1136 6.43908 22.1344 6.3249 22.1854C6.21072 22.2364 6.11155 22.3159 6.03688 22.4162C5.93766 22.5618 5.89016 22.7364 5.90198 22.9122C5.91381 23.088 5.98427 23.2547 6.10209 23.3856C6.17795 23.4759 6.27588 23.5449 6.38634 23.5861C6.49681 23.6272 6.61605 23.639 6.73245 23.6204C6.84302 23.6023 6.94723 23.5565 7.03539 23.4873C7.12355 23.4182 7.1928 23.3279 7.23673 23.2248C7.31041 23.0953 7.34396 22.9468 7.33313 22.7982C7.32229 22.6496 7.26756 22.5076 7.17587 22.3901V22.3901Z" fill="#FE904D"/>
<path opacity="0.18" d="M18.7049 17.2516C18.6707 17.2279 18.6343 17.2075 18.5962 17.1908C18.4971 17.1513 18.3876 17.1461 18.2852 17.1761C18.1828 17.206 18.0933 17.2693 18.031 17.356C17.7853 17.7427 17.6047 18.1671 17.4963 18.6123C17.3224 19.4035 16.9833 20.1904 17.1703 21.0033C17.173 21.0078 17.1768 21.0116 17.1814 21.0141C17.1859 21.0167 17.1911 21.0181 17.1964 21.0181C17.2016 21.0181 17.2068 21.0167 17.2113 21.0141C17.2159 21.0116 17.2197 21.0078 17.2224 21.0033C17.9311 20.0817 18.1702 18.8992 18.8005 17.9255C18.8757 17.8229 18.9078 17.695 18.89 17.5691C18.8721 17.4431 18.8057 17.3292 18.7049 17.2516V17.2516Z" fill="#FE904D"/>
<path opacity="0.18" d="M58.6781 46.7349C58.5506 46.7218 58.422 46.7468 58.3087 46.8067C58.1954 46.8667 58.1025 46.959 58.0416 47.0718C57.9808 47.1846 57.9548 47.313 57.9669 47.4406C57.9791 47.5682 58.0288 47.6894 58.1099 47.7887C58.1909 47.8881 58.2996 47.9611 58.4222 47.9986C58.5448 48.0361 58.6758 48.0364 58.7985 47.9995C58.9213 47.9625 59.0303 47.8899 59.1118 47.791C59.1933 47.692 59.2436 47.5711 59.2563 47.4435C59.2733 47.2729 59.222 47.1025 59.1136 46.9697C59.0053 46.8369 58.8486 46.7524 58.6781 46.7349Z" fill="#FE904D"/>
<path opacity="0.18" d="M70.6984 44.8525C70.5852 44.7688 70.4496 44.7208 70.309 44.7149C70.1683 44.7089 70.0291 44.7453 69.9094 44.8192C69.7896 44.8931 69.6947 45.0013 69.637 45.1296C69.5792 45.258 69.5613 45.4007 69.5855 45.5394C69.5829 45.5552 69.5829 45.5714 69.5855 45.5872C69.5838 45.6689 69.5911 45.7505 69.6072 45.8307C69.629 45.9429 69.6767 46.0486 69.7463 46.1393C69.8107 46.211 69.8927 46.2647 69.9842 46.2952C70.0756 46.3257 70.1734 46.3319 70.268 46.3132C70.3847 46.2935 70.4962 46.2502 70.5956 46.1859C70.6951 46.1217 70.7803 46.0377 70.8462 45.9393C70.9678 45.7746 71.0204 45.5689 70.9928 45.3659C70.9652 45.163 70.8596 44.9788 70.6984 44.8525Z" fill="#FE904D"/>
<path opacity="0.18" d="M60.0692 37.3839C60.0801 37.3245 60.0741 37.2632 60.0518 37.2071C60.0295 37.151 59.9919 37.1023 59.9432 37.0665L59.1607 36.4927L59.1911 35.5233C59.1939 35.463 59.1794 35.4031 59.1494 35.3508C59.1193 35.2984 59.075 35.2557 59.0216 35.2276C58.9712 35.1945 58.9123 35.1769 58.852 35.1769C58.7918 35.1769 58.7328 35.1945 58.6825 35.2276L57.8913 35.7928L56.9783 35.4624C56.9205 35.4383 56.857 35.4313 56.7954 35.4424C56.7338 35.4534 56.6766 35.4819 56.6308 35.5246C56.5849 35.5672 56.5523 35.6221 56.5369 35.6828C56.5214 35.7435 56.5238 35.8073 56.5436 35.8667L56.8392 36.7883L56.2436 37.5578C56.2052 37.6046 56.1814 37.6618 56.1752 37.7221C56.169 37.7824 56.1807 37.8432 56.2089 37.8969C56.2354 37.9489 56.2742 37.9936 56.3219 38.0273C56.3737 38.0608 56.434 38.0789 56.4958 38.0795H57.4913L58.0391 38.8837C58.0612 38.9188 58.0909 38.9485 58.126 38.9707V38.9707C58.1718 38.9992 58.2239 39.0161 58.2777 39.0199C58.3315 39.0236 58.3854 39.0142 58.4347 38.9923C58.4841 38.9704 58.5273 38.9368 58.5606 38.8944C58.5939 38.852 58.6164 38.802 58.6259 38.7489L58.9129 37.8795L59.8475 37.61C59.9006 37.5942 59.9489 37.5652 59.9877 37.5256C60.0265 37.4861 60.0545 37.4373 60.0692 37.3839V37.3839Z" fill="#FE904D"/>
<path opacity="0.18" d="M12.7491 16.8604C12.1908 16.1702 11.5171 15.5818 10.758 15.1215C10.1277 14.7346 9.45385 15.6779 10.0799 16.0474C10.7778 16.4383 11.4234 16.916 12.0014 17.469C12.4361 17.9037 12.8143 18.5949 13.4577 18.6602C13.4753 18.6621 13.4931 18.658 13.5081 18.6485C13.5231 18.6391 13.5345 18.6248 13.5403 18.608C13.7055 17.9559 13.149 17.3429 12.7491 16.8604Z" fill="#FE904D"/>
<path opacity="0.18" d="M13.2882 26.4722C13.3122 26.3378 13.298 26.1993 13.2473 26.0725C13.1966 25.9457 13.1113 25.8357 13.0012 25.7549L11.2275 24.4507L11.3014 22.251C11.3066 22.1139 11.2731 21.9781 11.2047 21.8591C11.1363 21.7402 11.0357 21.643 10.9146 21.5785C10.7934 21.5141 10.6566 21.4851 10.5197 21.4949C10.3829 21.5046 10.2515 21.5527 10.1407 21.6337L8.36703 22.9118L6.28468 22.1684C6.15558 22.1176 6.01469 22.1047 5.8785 22.1311C5.74231 22.1575 5.61646 22.2221 5.51567 22.3175C5.41488 22.4128 5.34332 22.5348 5.30936 22.6693C5.27541 22.8038 5.28046 22.9452 5.32394 23.077L5.98907 25.1724L4.63707 26.9113C4.55376 27.0196 4.50231 27.149 4.48849 27.2849C4.47467 27.4208 4.49902 27.5579 4.55881 27.6807C4.61494 27.8002 4.7039 27.9012 4.8153 27.972C4.93212 28.0511 5.06986 28.0934 5.21091 28.0937H7.41063L8.64526 29.9152C8.70102 29.9935 8.77019 30.0612 8.84958 30.1152V30.1152C8.95189 30.1819 9.06921 30.222 9.19092 30.2319C9.31263 30.2419 9.4349 30.2213 9.54667 30.1721C9.65844 30.1229 9.75618 30.0466 9.83106 29.9502C9.90594 29.8537 9.95559 29.7401 9.97553 29.6196L10.632 27.6416L12.7447 27.0287C12.8785 26.9965 13.0005 26.9272 13.0967 26.8288C13.1928 26.7303 13.2592 26.6067 13.2882 26.4722V26.4722Z" fill="#FE904D"/>
<path opacity="0.18" d="M6.94982 33.5192C6.85853 32.8801 0.424551 32.9323 0.107199 34.3625C-0.210152 35.7928 7.06285 34.1799 6.94982 33.5192Z" fill="#FE904D"/>
<path opacity="0.18" d="M14.0794 43.544C13.9576 42.8658 9.18867 42.8788 8.86263 44.3135C8.53658 45.7481 14.1837 44.1265 14.0794 43.544Z" fill="#FE904D"/>
<path opacity="0.18" d="M7.66278 40.7096C7.47542 40.6905 7.28818 40.7467 7.14225 40.8658C6.99631 40.9848 6.90364 41.1569 6.88462 41.3443C6.86559 41.5316 6.92177 41.7189 7.0408 41.8648C7.15983 42.0107 7.33196 42.1034 7.51932 42.1224C7.70668 42.1415 7.89392 42.0853 8.03985 41.9662C8.18579 41.8472 8.27846 41.6751 8.29748 41.4877C8.31651 41.3004 8.26032 41.1131 8.14129 40.9672C8.02226 40.8213 7.85014 40.7286 7.66278 40.7096V40.7096Z" fill="#FE904D"/>
<path d="M18.1093 19.4818L44.9798 19.2861L45.7275 37.5534L17.9049 37.2969L18.1093 19.4818Z" fill="#FE904D"/>
<path d="M18.1093 19.4818L30.8251 9.19177C31.0862 8.97961 31.4124 8.8638 31.7489 8.8638C32.0854 8.8638 32.4116 8.97961 32.6727 9.19177L44.9798 19.2818" fill="#FF4F5B"/>
<path d="M18.1093 19.4818L30.8251 9.19177C31.0862 8.97961 31.4124 8.8638 31.7489 8.8638C32.0854 8.8638 32.4116 8.97961 32.6727 9.19177L44.9798 19.2818" fill="#FE904D"/>
<path d="M17.9049 37.2926C17.8745 37.2622 20.0221 34.9146 22.7087 32.0498C25.3953 29.1849 27.6037 26.8852 27.6342 26.9156C27.6646 26.9461 25.517 29.298 22.8304 32.1672C20.1438 35.0364 17.931 37.3274 17.9049 37.2926Z" fill="#1A2E35"/>
<path d="M45.7276 37.5534C45.6928 37.5839 43.5974 35.2798 41.0499 32.415C38.5024 29.5501 36.4635 27.1982 36.4939 27.1634C36.5244 27.1287 38.6241 29.4327 41.176 32.3019C43.7278 35.1711 45.7536 37.523 45.7276 37.5534Z" fill="#1A2E35"/>
<path d="M44.9798 19.2861L31.4859 30.0631L18.1093 19.4818" fill="#E06F2F"/>
<path d="M19.4613 20.4773L19.4222 12.087L42.9497 11.8088L43.2149 20.6382L31.4859 29.9239L19.4613 20.4773Z" fill="#FAFAFA"/>
<path d="M19.4656 20.4773L19.683 20.6469L20.322 21.1424C20.8828 21.5772 21.7001 22.2249 22.7522 23.0422L31.4989 29.9022H31.4728L43.2105 20.6164C43.1583 18.934 43.1061 17.1647 43.054 15.3693C43.0134 14.1578 42.9772 12.9638 42.9453 11.7871L42.9757 11.8175L19.4482 12.0827C19.4482 14.7215 19.4482 16.8169 19.47 18.2558C19.47 18.9731 19.47 19.5296 19.47 19.9035V20.473C19.47 20.473 19.47 20.4251 19.47 20.3295V19.8948C19.47 19.5209 19.47 18.9688 19.47 18.2515C19.47 16.8126 19.4439 14.7128 19.4308 12.0697L42.9583 11.7827H42.9844V11.8132C43.0192 12.9826 43.054 14.1824 43.0887 15.391C43.1453 17.1908 43.1974 18.9558 43.2496 20.6425L31.5119 29.9239L22.713 23.0596L20.2959 21.1511L19.6699 20.6512L19.4656 20.4773Z" fill="#1A2E35"/>
<path d="M39.2327 16.0344C39.2327 16.0344 35.6332 16.0866 31.1946 16.1127C26.756 16.1387 23.1478 16.1474 23.1478 16.13C23.1478 16.1127 26.7473 16.0779 31.1859 16.0518C35.6245 16.0257 39.2327 16.017 39.2327 16.0344Z" fill="#1A2E35"/>
<path d="M39.2327 18.4036C39.2327 18.4036 35.6332 18.4558 31.1946 18.4819C26.756 18.508 23.1478 18.5167 23.1478 18.4993C23.1478 18.4819 26.7473 18.4515 31.1859 18.421C35.6245 18.3906 39.2327 18.3863 39.2327 18.4036Z" fill="#1A2E35"/>
<path d="M39.2327 21.1381C39.2327 21.1381 35.6332 21.1859 31.1946 21.2164C26.756 21.2468 23.1478 21.2511 23.1478 21.2337C23.1478 21.2164 26.7473 21.1816 31.1859 21.1555C35.6245 21.1294 39.2327 21.1207 39.2327 21.1381Z" fill="#1A2E35"/>
<path d="M39.2327 23.8682C39.2327 23.8682 35.7984 23.9204 31.5641 23.9421C27.3299 23.9638 23.8955 23.9769 23.8955 23.9421C23.8955 23.9073 27.3299 23.9073 31.5641 23.9073C35.7984 23.9073 39.2327 23.8508 39.2327 23.8682Z" fill="#1A2E35"/>
<path d="M36.22 26.2679H36.1288H35.8549L34.8854 26.2983L31.6076 26.3418C30.3034 26.3418 29.1644 26.3722 28.3254 26.3722H26.9429H27.0386H27.3081H28.3036L31.5815 26.3244C32.8639 26.3244 34.0247 26.294 34.8637 26.294H36.1288L36.22 26.2679Z" fill="#1A2E35"/>
<path d="M33.1944 28.572C33.1944 28.572 32.4249 28.6024 31.4815 28.6024C30.5382 28.6024 29.7426 28.6024 29.7426 28.572C29.7426 28.5415 30.5121 28.5415 31.4815 28.5415C32.451 28.5415 33.1944 28.5546 33.1944 28.572Z" fill="#1A2E35"/>
<path d="M41.1108 26.7113C42.681 26.7113 43.9539 25.4384 43.9539 23.8682C43.9539 22.298 42.681 21.0251 41.1108 21.0251C39.5405 21.0251 38.2676 22.298 38.2676 23.8682C38.2676 25.4384 39.5405 26.7113 41.1108 26.7113Z" fill="#1A2E35"/>
<path d="M40.3717 26.7113C41.9419 26.7113 43.2148 25.4384 43.2148 23.8682C43.2148 22.298 41.9419 21.0251 40.3717 21.0251C38.8015 21.0251 37.5286 22.298 37.5286 23.8682C37.5286 25.4384 38.8015 26.7113 40.3717 26.7113Z" fill="#375A64"/>
<path d="M40.7326 22.5466V24.9072H40.2978V22.9118H39.7935V22.5466H40.7326Z" fill="#ECECEC"/>
</svg>
