<svg width="15" height="15" viewBox="0 0 15 15" fill="none" xmlns="http://www.w3.org/2000/svg">
<path d="M14.6151 7.30722C14.6151 5.91074 14.2149 4.54351 13.4619 3.36741C12.7089 2.19131 11.6347 1.25559 10.3665 0.671029C9.09821 0.0864693 7.68901 -0.12245 6.30571 0.0690064C4.92241 0.260462 3.62293 0.844275 2.56113 1.75133C1.49932 2.65838 0.71965 3.85068 0.314422 5.18709C-0.0908061 6.52349 -0.104622 7.94802 0.274611 9.29202C0.653843 10.636 1.41024 11.8432 2.45426 12.7707C3.49827 13.6982 4.78618 14.3071 6.16551 14.5253V9.42362H4.31266V7.30722H6.16551V5.69716C6.16551 3.86508 7.25645 2.854 8.92561 2.854C9.47355 2.86154 10.0202 2.90905 10.5612 2.99616V4.7915H9.6396C8.73234 4.7915 8.44962 5.35534 8.44962 5.93356V7.30403H10.4766L10.1523 9.42362H8.44962V14.5349C10.1699 14.2624 11.7364 13.3845 12.8668 12.0594C13.9972 10.7342 14.6172 9.04899 14.6151 7.30722V7.30722Z" fill="#0080FF"/>
</svg>
