<svg width="15" height="15" viewBox="0 0 15 15" fill="none" xmlns="http://www.w3.org/2000/svg">
<path d="M7.30757 14.6151C11.3434 14.6151 14.6151 11.3434 14.6151 7.30757C14.6151 3.27171 11.3434 0 7.30757 0C3.27171 0 0 3.27171 0 7.30757C0 11.3434 3.27171 14.6151 7.30757 14.6151Z" fill="url(#paint0_linear_4_5)"/>
<path d="M9.57571 4.54267C9.4762 4.54267 9.37892 4.57217 9.29618 4.62746C9.21343 4.68275 9.14895 4.76133 9.11086 4.85326C9.07278 4.9452 9.06282 5.04637 9.08223 5.14397C9.10164 5.24157 9.14957 5.33122 9.21993 5.40159C9.2903 5.47195 9.37995 5.51987 9.47755 5.53929C9.57515 5.5587 9.67632 5.54874 9.76825 5.51065C9.86019 5.47257 9.93877 5.40808 9.99406 5.32534C10.0493 5.2426 10.0789 5.14532 10.0789 5.04581C10.0791 4.97968 10.0662 4.91416 10.041 4.85302C10.0158 4.79188 9.97872 4.73633 9.93195 4.68956C9.88519 4.6428 9.82964 4.60575 9.7685 4.58054C9.70736 4.55533 9.64184 4.54246 9.57571 4.54267V4.54267Z" fill="white"/>
<path d="M7.34271 5.18797C6.92539 5.18797 6.51744 5.31172 6.17045 5.54357C5.82346 5.77542 5.55301 6.10496 5.39331 6.49052C5.23361 6.87607 5.19183 7.30032 5.27324 7.70963C5.35466 8.11893 5.55562 8.49489 5.85071 8.78998C6.1458 9.08508 6.52176 9.28603 6.93106 9.36745C7.34037 9.44886 7.76462 9.40708 8.15017 9.24738C8.53573 9.08768 8.86527 8.81723 9.09712 8.47024C9.32897 8.12325 9.45272 7.7153 9.45272 7.29798C9.45229 6.7385 9.22985 6.20206 8.83424 5.80645C8.43863 5.41084 7.90219 5.1884 7.34271 5.18797V5.18797ZM7.34271 8.64928C7.07499 8.6496 6.8132 8.57048 6.59048 8.42194C6.36775 8.27341 6.1941 8.06213 6.0915 7.81486C5.98891 7.56758 5.96198 7.29543 6.01413 7.03284C6.06628 6.77026 6.19517 6.52905 6.38447 6.33974C6.57377 6.15044 6.81498 6.02156 7.07757 5.96941C7.34015 5.91726 7.6123 5.94418 7.85958 6.04678C8.10685 6.14937 8.31813 6.32302 8.46667 6.54575C8.61521 6.76848 8.69432 7.03027 8.69401 7.29798C8.69358 7.65624 8.55108 7.9997 8.29775 8.25303C8.04443 8.50636 7.70097 8.64886 7.34271 8.64928V8.64928Z" fill="white"/>
<path d="M9.01826 11.5819H5.59688C4.9144 11.581 4.26014 11.3095 3.77771 10.8267C3.29527 10.344 3.02408 9.68955 3.02365 9.00708V5.59049C3.02408 4.90801 3.29527 4.25358 3.77771 3.77085C4.26014 3.28811 4.9144 3.01652 5.59688 3.01567H9.01826C9.70073 3.01652 10.355 3.28811 10.8374 3.77085C11.3199 4.25358 11.5911 4.90801 11.5915 5.59049V9.00708C11.5911 9.68955 11.3199 10.344 10.8374 10.8267C10.355 11.3095 9.70073 11.581 9.01826 11.5819V11.5819ZM5.59688 3.8191C5.36454 3.81931 5.13452 3.86531 4.91997 3.95446C4.70542 4.04362 4.51054 4.17418 4.34648 4.33869C4.18242 4.5032 4.05238 4.69843 3.96381 4.91322C3.87524 5.12801 3.82986 5.35815 3.83028 5.59049V9.00708C3.83028 9.47575 4.01636 9.92526 4.34761 10.2568C4.67887 10.5884 5.1282 10.7748 5.59688 10.7753H9.01826C9.48693 10.7748 9.93627 10.5884 10.2675 10.2568C10.5988 9.92526 10.7849 9.47575 10.7849 9.00708V5.59049C10.7849 5.12181 10.5988 4.67231 10.2675 4.34075C9.93627 4.0092 9.48693 3.82272 9.01826 3.8223L5.59688 3.8191Z" fill="white"/>
<defs>
<linearGradient id="paint0_linear_4_5" x1="0.463212" y1="1.5254" x2="15.0751" y2="13.8676" gradientUnits="userSpaceOnUse">
<stop stop-color="#FFE185"/>
<stop offset="0.21" stop-color="#FFBB36"/>
<stop offset="0.38" stop-color="#FF5176"/>
<stop offset="0.52" stop-color="#F63395"/>
<stop offset="0.74" stop-color="#A436D2"/>
<stop offset="1" stop-color="#5F4EED"/>
</linearGradient>
</defs>
</svg>
