<svg width="16" height="15" viewBox="0 0 16 15" fill="none" xmlns="http://www.w3.org/2000/svg">
<path d="M8.19459 14.6151C12.2304 14.6151 15.5022 11.3434 15.5022 7.30757C15.5022 3.27171 12.2304 0 8.19459 0C4.15873 0 0.88702 3.27171 0.88702 7.30757C0.88702 11.3434 4.15873 14.6151 8.19459 14.6151Z" fill="#FF0000"/>
<path d="M12.1063 6.26295C12.1063 5.79696 11.9212 5.35006 11.5917 5.02055C11.2622 4.69105 10.8153 4.50594 10.3493 4.50594H5.86575C5.39976 4.50594 4.95286 4.69105 4.62335 5.02055C4.29385 5.35006 4.10874 5.79696 4.10874 6.26295V8.35219C4.10874 8.81818 4.29385 9.26508 4.62335 9.59459C4.95286 9.92409 5.39976 10.1092 5.86575 10.1092H10.3525C10.8185 10.1092 11.2654 9.92409 11.5949 9.59459C11.9244 9.26508 12.1095 8.81818 12.1095 8.35219L12.1063 6.26295ZM9.46762 7.4641L7.45664 8.4656C7.37678 8.50872 7.10844 8.45122 7.10844 8.36177V6.31246C7.10844 6.22142 7.37998 6.16391 7.45824 6.20864L9.38456 7.25646C9.46443 7.30278 9.54908 7.41938 9.46762 7.4641V7.4641Z" fill="white"/>
</svg>
